<?xml version="1.0" standalone="no"?>
<!DOCTYPE svg PUBLIC "-//W3C//DTD SVG 20010904//EN"
 "http://www.w3.org/TR/2001/REC-SVG-20010904/DTD/svg10.dtd">
<svg version="1.0" xmlns="http://www.w3.org/2000/svg"
 width="211.000000pt" height="211.000000pt" viewBox="0 0 211.000000 211.000000"
 preserveAspectRatio="xMidYMid meet">
<metadata>
Created by potrace 1.11, written by Peter Selinger 2001-2013
</metadata>
<g transform="translate(0.000000,211.000000) scale(0.100000,-0.100000)"
fill="#000000" stroke="none">
<path d="M673 1659 l-393 -391 0 -469 0 -468 38 13 c35 13 98 38 185 73 l37
16 0 366 0 365 266 265 265 265 267 -267 266 -266 1 -273 c0 -247 -2 -275 -17
-290 -10 -10 -25 -18 -33 -18 -8 0 -23 -4 -33 -10 -9 -5 -102 -43 -207 -84
-104 -41 -311 -123 -460 -181 -148 -59 -333 -132 -410 -162 -77 -30 -144 -58
-150 -64 -5 -5 8 -9 35 -9 400 -3 1523 0 1527 4 3 3 5 273 5 602 l1 596 -389
389 c-214 214 -393 389 -399 389 -5 0 -187 -176 -402 -391z"/>
<path d="M796 1151 c-10 -39 -5 -205 7 -213 18 -11 175 -10 182 2 3 6 11 10
16 10 6 0 7 -4 4 -10 -3 -5 -1 -10 4 -10 6 0 12 19 13 43 0 23 2 68 4 100 1
31 -2 57 -6 57 -4 0 -6 8 -3 19 4 17 -3 18 -106 18 -92 0 -111 -3 -115 -16z"/>
<path d="M1124 1153 c-6 -10 -9 -27 -7 -38 2 -11 4 -27 3 -35 -1 -32 1 -144 3
-146 2 -3 170 -6 213 -5 20 1 21 6 22 121 l1 120 -112 0 c-96 0 -114 -3 -123
-17z"/>
<path d="M789 821 c-4 -48 -4 -116 1 -167 l5 -57 107 0 c59 1 111 3 116 7 7 4
9 102 3 213 -1 21 -5 21 -116 21 -99 0 -115 -3 -116 -17z"/>
<path d="M1125 834 c-11 -4 -11 -207 0 -224 9 -15 222 -12 228 4 3 6 4 59 3
116 l-1 105 -110 1 c-60 1 -114 0 -120 -2z"/>
</g>
</svg>
